<?xml version="1.0" encoding="utf-8"?>
<!-- Generator: Adobe Illustrator 23.0.4, SVG Export Plug-In . SVG Version: 6.00 Build 0)  -->
<svg version="1.1" id="Layer_1" xmlns="http://www.w3.org/2000/svg" xmlns:xlink="http://www.w3.org/1999/xlink" x="0px" y="0px"
	 viewBox="0 0 480 260" style="enable-background:new 0 0 480 260;" xml:space="preserve">
<style type="text/css">
	.st0{fill:#FFFFFF;}
</style>
<g>
	<path class="st0" d="M76.09,189.95l21.75-49.55l2.11,2.86c3.71,5.02,9.97,7.47,16.1,6.3l3.06-0.56
		c13.1-2.49,24.12-11.28,29.48-23.48l28.53-64.98c5.53-13.29-3.65-21.71-18.75-13.8c-15.12,7.92-38.46,43.35-38.46,43.35
		l16.22-36.93c1.04-2.37-1-4.93-3.54-4.45L72.07,60.24c-3.38,0.64-6.23,2.91-7.61,6.06l-4.3,9.79c-1.26,2.79,1.36,5.58,4.39,4.12
		c0,0,11.44-6.44,26.49-11.82c14.32-5.11,24.46-6.9,24.46-6.9L58.81,190.6c-1.04,2.37,1,4.93,3.54,4.45l9.64-1.83
		C73.81,192.87,75.35,191.65,76.09,189.95z M110.72,111.08c0,0,2.95-4.37,11.68-16.17c8.73-11.8,25.74-32.44,31.4-37.05
		c3.25-2.65,10.44-6.67,6.4,2.56l-26.14,59.54c-3.5,7.96-10.35,14.37-21.14,16.31c-8.82,1.59-10.31,0.03-11.64-1.77l-0.53-0.71
		L110.72,111.08z"/>
	<path class="st0" d="M144.37,151.51c-15.12,7.92-38.46,43.35-38.46,43.35l15.28-34.81c0.78-1.78-0.75-3.7-2.66-3.34l-11.97,2.28
		c-1.3,0.25-2.39,1.12-2.93,2.33l-40.97,93.32c-0.78,1.78,0.75,3.7,2.66,3.34l11.97-2.28c1.3-0.25,2.39-1.12,2.93-2.33l4.15-9.45
		l2.11,2.86c3.71,5.02,9.97,7.47,16.1,6.3l3.06-0.56c13.1-2.49,24.12-11.28,29.48-23.48l27.98-63.74
		C168.65,152.02,159.47,143.6,144.37,151.51z M146.18,165.19l-25.6,58.3c-3.5,7.96-10.35,14.37-21.14,16.31
		c-8.82,1.59-10.31,0.03-11.64-1.77l-0.53-0.71l9.43-21.47c0,0,2.95-4.37,11.68-16.17c8.73-11.8,25.74-32.44,31.4-37.05
		C143.03,159.98,150.21,155.96,146.18,165.19z"/>
	<path class="st0" d="M176.1,84.57l-14.07,32.04c-2.87,6.53-2,14.11,2.27,19.83c1.29,1.73,3.88,1.72,5.16-0.01l18.62-25.17
		l-0.19,0.43c-2.87,6.53-2,14.11,2.27,19.83h0c1.29,1.72,3.88,1.72,5.16-0.01l20.39-27.56l-1.18,2.68c-2.87,6.53-2,14.11,2.27,19.83
		l0,0c1.29,1.72,3.88,1.72,5.16-0.01l30.02-40.59l-27.12,61.76c-0.78,1.78,0.76,3.7,2.67,3.33l10.81-2.1
		c1.29-0.25,2.38-1.12,2.91-2.33l16.99-38.69l6.77,9.06c1.74,2.33,4.66,3.46,7.51,2.92c5.31-1.01,9.88-4.26,12.6-8.84L304,85.41
		l-2,4.56c-2.87,6.53-2,14.11,2.27,19.83c1.29,1.72,3.88,1.72,5.16-0.01l31.07-42l-7.13,16.24c-2.86,6.52-2,14.07,2.26,19.77h0
		c1.51,2.02,4.18,2.76,6.51,1.82c5.9-2.38,18-6.74,33.09-9.42c13.28-2.35,23.36-2.91,29.42-2.96c2.63-0.02,4.13-3.03,2.55-5.14
		l-3.83-5.13c-2.67-3.57-7.31-5.06-11.56-3.69l-47.09,15.13l24.81-56.51l10.12-1.93c0.78-0.15,1.44-0.67,1.76-1.4l2.38-5.41
		c0.42-0.95-0.4-1.97-1.42-1.78l-8.97,1.71l10.71-24.4c0.78-1.78-0.75-3.7-2.66-3.34L370.66,3.4c-1.3,0.25-2.39,1.12-2.93,2.33
		l-11.7,26.66l-9.79,1.86c-0.78,0.15-1.44,0.67-1.76,1.4l-2.38,5.41c-0.42,0.95,0.4,1.97,1.42,1.78l8.63-1.64l-7.64,17.41
		l-26.9,32.01l14.81-33.74c0.78-1.78-0.75-3.7-2.66-3.34l-10.78,2.05c-1.3,0.25-2.39,1.12-2.93,2.33l-6.03,13.73l-15.77,18.76
		l7.13-16.24c3.79-9.07-3.75-16.78-12.99-12.05c-8.74,4.48-20.48,23.59-20.48,23.59l7.94-18.08c0.78-1.78-0.75-3.7-2.66-3.34
		l-10.78,2.05c-1.3,0.25-2.39,1.12-2.93,2.33l-3.35,7.63l-26.01,30.95l35.09-79.93c0.78-1.78-0.76-3.71-2.67-3.33l-10.82,2.12
		c-1.29,0.25-2.38,1.12-2.91,2.33l-27.53,62.7l-17.81,21.19l14.81-33.74c0.78-1.78-0.75-3.7-2.66-3.34l-10.78,2.05
		c-1.3,0.25-2.39,1.12-2.93,2.33l-8,18.22l-16.3,19.4l14.81-33.74c0.78-1.78-0.75-3.7-2.66-3.34l-10.78,2.05
		C177.72,82.49,176.63,83.36,176.1,84.57z M283.29,73.07c1.52-1.14,2.55,0.33,1.95,1.7l-13.92,31.71c-1.02,2.32-4.16,2.67-5.67,0.63
		l-3.51-4.75C262.14,102.35,279.38,76,283.29,73.07z"/>
	<path class="st0" d="M421.02,131.59l-1.54-2.09c-1.29-1.75-3.91-1.74-5.19,0.03l-13.95,19.32l7.22-16.44
		c0.62-1.42-0.6-2.96-2.13-2.67l-7.95,1.51c-1.04,0.2-1.92,0.9-2.34,1.86l-2.69,6.13L368.25,166c-7.18,6.92-11.46,1.8-8.67-6.75
		c1.1,0.78,3.19,1.66,6.27,1.07c4.3-0.82,10.45-7.99,12.49-12.98c3.43-8.42-4.48-14.62-13.6-10.05
		c-6.24,3.13-14.43,12.86-18.31,21.62l-8.53,10.14l10.84-24.69c0.78-1.78-0.75-3.7-2.66-3.34l-2.44,0.46
		c-4.03,0.77-7.62,3.05-10.02,6.38l-11.95,16.54l7.13-16.25c0.78-1.78-0.75-3.7-2.66-3.34l-2.44,0.46
		c-4.03,0.77-7.62,3.05-10.02,6.38l-11.45,15.85l7.22-16.44c0.62-1.42-0.6-2.96-2.13-2.67l-7.95,1.51c-1.04,0.2-1.92,0.9-2.34,1.86
		l-6.41,14.6l-11.67,13.89l10.84-24.69c0.78-1.78-0.75-3.7-2.66-3.34l-2.44,0.46c-4.03,0.77-7.62,3.05-10.02,6.38l-11.95,16.54
		l7.13-16.25c0.78-1.78-0.75-3.7-2.66-3.34l-2.44,0.46c-4.03,0.77-7.62,3.05-10.02,6.38l-11.45,15.85l7.22-16.44
		c0.62-1.42-0.6-2.96-2.13-2.67l-7.95,1.51c-1.04,0.2-1.92,0.9-2.34,1.86l-7.17,16.32l-10.09,12.01l11.21-25.53
		c0.62-1.42-0.6-2.96-2.13-2.67l-7.95,1.51c-1.04,0.2-1.92,0.9-2.34,1.86l-6.06,13.79l-12.41,14.77l11.21-25.53
		c0.62-1.42-0.6-2.96-2.13-2.67l-7.95,1.51c-1.04,0.2-1.92,0.9-2.34,1.86l-10.66,24.27c-2.2,5-1.53,10.8,1.74,15.18
		c0.97,1.29,2.91,1.29,3.87-0.01l14.2-19.2l-0.13,0.29c-2.2,5-1.53,10.8,1.74,15.18c0.97,1.29,2.91,1.29,3.87-0.01l11.48-15.52
		l-5.22,11.89c-0.62,1.42,0.6,2.96,2.13,2.67l7.95-1.51c1.04-0.2,1.92-0.9,2.34-1.86l3.04-6.91l15.19-21.03l-10.93,24.9
		c-0.62,1.42,0.6,2.96,2.13,2.67l7.95-1.51c1.04-0.2,1.92-0.9,2.34-1.86l2.75-6.27l15.69-21.72c0,0-2.41,5.09-4.28,9.97
		c-1.89,4.9-1.57,10.67,1.7,15.05v0c0.97,1.29,2.91,1.29,3.87-0.01l13.33-18.02l-6.25,14.25c-0.62,1.42,0.6,2.96,2.13,2.67
		l7.95-1.51c1.04-0.2,1.92-0.9,2.34-1.86l3.04-6.91l15.19-21.03l-10.93,24.9c-0.62,1.42,0.6,2.96,2.13,2.67l7.95-1.51
		c1.04-0.2,1.92-0.9,2.34-1.86l2.75-6.27l15.69-21.72c0,0-2.41,5.09-4.28,9.97c-1.89,4.9-1.57,10.67,1.7,15.05
		c0.97,1.29,2.91,1.29,3.87-0.01l12.61-17.05c-0.12,1.56,0.03,2.98,0.53,4.17c1.42,3.39,3.61,5.94,6.36,7.19
		c10.66,5.48,20.62-8.31,20.62-8.31l16.05-19.88l-9.94,22.65c-0.62,1.42,0.6,2.96,2.13,2.67l7.95-1.51c1.04-0.2,1.92-0.9,2.34-1.86
		l3.04-6.91l19.1-26.45l2.7,3.66c0.73,0.99,2.27,0.82,2.76-0.31l3.39-7.73C421.63,133.2,421.53,132.29,421.02,131.59z
		 M371.42,142.02c1.52-0.82,2.57-0.13,2.57,1.31c0.01,2.78-4.5,8.8-8.58,11.14c-1.79,1.03-3.43,0.45-3.83,0.23
		C364.46,149.3,369.67,142.97,371.42,142.02z"/>
	<path class="st0" d="M177.05,173.21l-7.95,1.51c-1.04,0.2-1.92,0.9-2.34,1.86l-17.27,39.33c-0.62,1.42,0.6,2.96,2.13,2.67
		l7.95-1.51c1.04-0.2,1.92-0.9,2.34-1.86l3.04-6.91l19.1-26.45l2.7,3.66c0.73,0.99,2.27,0.82,2.76-0.31l3.39-7.73
		c0.35-0.79,0.24-1.71-0.27-2.4l-1.54-2.09c-1.29-1.75-3.91-1.74-5.19,0.03l-13.95,19.32l7.22-16.44
		C179.8,174.46,178.57,172.92,177.05,173.21z"/>
	<path class="st0" d="M373.35,189.03l-229.31,43.64c-1.27,0.24-2.35,1.08-2.9,2.26l-2.83,6.13c-0.66,1.42,0.57,2.99,2.11,2.7
		l229.24-43.39c1.28-0.24,2.37-1.09,2.91-2.28l2.9-6.37C376.11,190.3,374.89,188.74,373.35,189.03z"/>
	<path class="st0" d="M324.27,48.6l8.51-1.62c1.3-0.25,2.39-1.12,2.93-2.33l4.88-11.11c0.78-1.78-0.75-3.7-2.66-3.34l-8.51,1.62
		c-1.3,0.25-2.39,1.12-2.93,2.33l-4.88,11.11C320.83,47.04,322.36,48.97,324.27,48.6z"/>
</g>
</svg>
